<svg  xmlns="http://www.w3.org/2000/svg" width="157.575" height="39.59" viewBox="0 0 157.575 39.59"><g transform="translate(-14.43 -10.01)"><path d="M265.423,53.218C267.4,50.984,269.338,50,271.875,50a6.934,6.934,0,0,1,6.493,3.869c.6,1.2.774,2.15.774,4.644V70.2h-6.279V59.02c0-3.489-.815-4.692-3.1-4.692-1.59,0-3.266,1.2-4.343,3.095V70.2H259.19V50.392h6.233Z" transform="translate(-185.9 -30.373)" fill="#fdb913"></path><path d="M372.77,35.778A5.678,5.678,0,0,1,369.1,37.2c-2.886,0-4.708-2.234-4.708-5.844,0-3.953,1.772-6.187,4.882-6.187a6.433,6.433,0,0,1,3.5,1.162ZM378.955,11.8H372.77V22.234a11.516,11.516,0,0,0-5.187-1.248c-5.682,0-9.583,4.223-9.583,10.283,0,5.971,3.9,10.314,9.239,10.314A8.2,8.2,0,0,0,372.77,39.6v1.582h6.185Z" transform="translate(-260.949 -1.359)" fill="#fdb913"></path><path d="M567.279,41.186H561V11.8h6.276Z" transform="translate(-415.133 -1.359)" fill="#fdb913"></path><path d="M619.568,55.875l-.344-.171a12.712,12.712,0,0,0-5.8-1.77c-1.719,0-2.753.519-2.753,1.38s.216,1.036,3.573,2.371c2.792,1.121,4.206,2.025,5.279,3.367a5.1,5.1,0,0,1,1.031,3.232c0,4.045-2.919,6.32-8.075,6.32a17.611,17.611,0,0,1-7.1-1.46V64.753a13.781,13.781,0,0,0,6.325,1.854c1.849,0,3.013-.56,3.013-1.508,0-.861-.517-1.294-2.325-2.068l-1.465-.6c-.772-.346-1.291-.563-1.592-.69a12.874,12.874,0,0,1-1.72-.863A5.531,5.531,0,0,1,605,56.135c0-3.7,3.263-6.135,8.123-6.135a13.239,13.239,0,0,1,6.144,1.33l.3.127Z" transform="translate(-448.551 -30.373)" fill="#fdb913"></path><path d="M473.667,68.425l-.365.24a11.925,11.925,0,0,1-6.524,1.924c-3.413,0-5.947-2.193-5.947-5.2a5.642,5.642,0,0,1,3.412-4.9,39.68,39.68,0,0,1,6.534-2.234l1.332-.387,1.01-.3.322-.089v-.26c0-2.1-1.149-3.095-3.674-3.095a11.636,11.636,0,0,0-6.546,2.275l.173-4.711a19.751,19.751,0,0,1,3.1-1.128A18.969,18.969,0,0,1,471.019,50c4.088,0,6.854,1.2,8.049,3.227a6.818,6.818,0,0,1,.647,3.607V70.2h-6.041V68.461Zm-.159-7.818-.688.24-1.806.642c-2.475.818-3.607,1.849-3.607,3.268a2.194,2.194,0,0,0,2.381,2.109,6.3,6.3,0,0,0,3.73-1.477Z" transform="translate(-339.051 -30.373)" fill="#fdb913"></path><path d="M34.214,67.966A14.8,14.8,0,0,1,25.057,70.6c-6.363,0-10.627-4.088-10.627-10.307A9.975,9.975,0,0,1,24.636,50c5.9,0,9.912,4.329,9.912,10.716v.556H20.7c.209,3.456,2.556,5.442,6.373,5.442,2.388,0,4.182-.647,6.9-2.549l.24-.214Zm-5.291-9.939c-.24-2.571-1.82-4.242-4.088-4.242-2.186,0-3.8,1.715-4.006,4.242Z" transform="translate(0 -30.373)" fill="#fdb913"></path><path d="M176.806,67.966a14.811,14.811,0,0,1-9.16,2.631c-6.363,0-10.627-4.088-10.627-10.307A9.974,9.974,0,0,1,167.228,50c5.9,0,9.91,4.329,9.91,10.716v.556H163.289c.209,3.456,2.556,5.442,6.368,5.442,2.388,0,4.184-.647,6.9-2.549l.252-.214Zm-5.29-9.939c-.24-2.571-1.823-4.242-4.088-4.242-2.184,0-3.8,1.715-4.006,4.242Z" transform="translate(-108.301 -30.373)" fill="#fdb913"></path><path  d="M118.272,16.777a3.384,3.384,0,1,1,3.4-3.307A3.367,3.367,0,0,1,118.272,16.777Z" transform="translate(-76.227)" fill="#fdb913"></path><path  d="M103.23,75.683c2.366-.387,3.225-2.018,3.225-5.969V51.63h6.154v19.2c0,3.393-.572,5.514-1.991,7.4a7.354,7.354,0,0,1-5.43,2.98Z" transform="translate(-67.445 -31.611)" fill="#fdb913"></path></g></svg>