<?xml version="1.0" encoding="utf-8"?>
<!-- Generator: Adobe Illustrator 21.1.0, SVG Export Plug-In . SVG Version: 6.00 Build 0)  -->
<svg version="1.1" id="Lager_1" xmlns="http://www.w3.org/2000/svg" xmlns:xlink="http://www.w3.org/1999/xlink" x="0px" y="0px"
	 viewBox="0 0 377 143" width="377" height="143" style="enable-background:new 0 0 377 143;" xml:space="preserve">
<style type="text/css">
	.st0{fill:#FFFFFF;}
	.st1{fill:#E87722;}
	.st2{fill:#006F62;}
</style>
<g>
	<polygon class="st0" points="197.4,86.2 197.4,86.2 197.4,86.2 	"/>
	<g>
		<polygon class="st1" points="380,112 380,-2.9 15,-2.9 -3,16.2 -3,59 -3,125.1 -3,112 		"/>
		<g>
			<path class="st0" d="M332.9,86.2l-2.9-9.5h-19.6l-3.1,9.5h-16.4L314,22.5h12.1l23.1,63.6H332.9z M320.4,46.7l-5.7,17h11.1
				L320.4,46.7z"/>
			<path class="st0" d="M58.4,47.5l-7.7-1.1c-2.2-0.3-3.6-1.1-4.4-1.9c-1-1-1.3-2.1-1.3-2.9c0-2.8,2.2-5.9,7.7-5.9
				c2.8,0,8-0.3,12,3.7l8.8-10.8c-5.3-4.7-11.9-6.6-20.4-6.6C38.8,22.1,30,30.6,30,42.2c0,5.5,1.4,9.7,4.4,12.8
				c2.9,2.9,7.1,4.8,12.8,5.6l7.7,1.1c2.1,0.3,3.4,0.9,4.2,1.7c0.9,1,1.3,2.2,1.3,3.8c0,3.7-2.9,5.7-9.1,5.7
				c-5.1,0-10.9-1.2-14.2-4.5l-0.4,0.4l-8.7,10.5c6.3,5.8,13.9,7.5,23.2,7.5c13.4,0,24.6-7.1,24.6-20c0-5.9-1.3-10.6-4.7-13.9
				C68.3,50.1,64.2,48.3,58.4,47.5z"/>
			<path class="st0" d="M230,28.8c-4.4-4.4-10.5-6.3-17.2-6.3h-17.2l-6.4,7.8v55.8h23.6c6.6,0,12.8-1.9,17.2-6.3
				c7.4-7.4,6.6-15.6,6.6-25.6C236.6,44.4,237.4,36.2,230,28.8z M219.2,68.7c-1.4,2.1-3.6,3.6-7.5,3.6h-6.9V36.5h6.9
				c3.9,0,6.1,1.4,7.5,3.6c1.3,1.8,1.7,3.6,1.7,14.3C220.9,65.2,220.5,66.9,219.2,68.7z"/>
			<path class="st0" d="M284.2,28.8c-4.4-4.4-10.5-6.3-17.2-6.3h-17.4l-6.2,7.6v56h23.6c6.6,0,12.8-1.9,17.2-6.3
				c7.4-7.4,6.6-15.6,6.6-25.6C290.8,44.4,291.6,36.2,284.2,28.8z M273.5,68.7c-1.4,2.1-3.6,3.6-7.5,3.6h-6.9V36.5h6.9
				c3.9,0,6.1,1.4,7.5,3.6c1.3,1.8,1.7,3.6,1.7,14.3C275.2,65.2,274.8,66.9,273.5,68.7z"/>
			<polygon class="st0" points="169.9,22.5 160,45.4 150,22.5 143.3,22.5 136.9,30.3 152.1,60.3 152.1,86.2 167.8,86.2 167.8,60.3 
				187,22.5 			"/>
			<polygon class="st0" points="113.3,48.3 135,22.6 115.9,22.6 97.5,45.1 97.5,22.6 88.3,22.6 82,30.3 82,86.2 97.5,86.2 
				97.5,66.3 102.8,60.1 117.5,86.2 135.7,86.2 			"/>
		</g>
	</g>
	<g>
		<polygon class="st2" points="-3,109 -3,147 239.5,147 380,147 380,109 		"/>
		<g>
			<path class="st0" d="M80.4,120.2c0.7,0.4,1.3,0.9,1.7,1.5c0.4,0.7,0.6,1.4,0.6,2.2c0,0.8-0.2,1.5-0.6,2.2c-0.4,0.6-1,1.1-1.7,1.4
				s-1.6,0.5-2.6,0.5h-2.3v4.5h-2.8v-12.9h5.1C78.8,119.7,79.7,119.9,80.4,120.2z M79.4,125.3c0.3-0.3,0.5-0.8,0.5-1.3
				c0-0.4-0.1-0.7-0.2-1c-0.1-0.3-0.4-0.6-0.7-0.8c-0.3-0.2-0.7-0.3-1.2-0.3h-2.3v3.9h2.3C78.5,125.8,79.1,125.7,79.4,125.3z"/>
			<path class="st0" d="M97.9,132.4v0.1h-3l-2.4-4.7h-2v4.7h-2.8v-12.9h4.9c1,0,1.9,0.1,2.6,0.4c0.7,0.3,1.3,0.7,1.7,1.3
				c0.4,0.6,0.6,1.3,0.6,2.1c0,0.9-0.2,1.7-0.6,2.2c-0.4,0.6-1,1-1.7,1.4L97.9,132.4z M90.5,125.7h2.1c0.7,0,1.2-0.2,1.5-0.5
				c0.3-0.3,0.5-0.8,0.5-1.4c0-0.6-0.2-1.1-0.5-1.4c-0.3-0.3-0.8-0.5-1.5-0.5h-2.1C90.5,121.9,90.5,125.7,90.5,125.7z"/>
			<path class="st0" d="M112.6,129.8c-0.5,1-1.1,1.7-1.9,2.2c-0.8,0.5-1.8,0.8-2.9,0.8s-2-0.3-2.9-0.8c-0.8-0.5-1.5-1.2-2-2.2
				c-0.5-1-0.7-2.1-0.7-3.4v-0.6c0-1.3,0.2-2.4,0.7-3.4c0.5-1,1.1-1.7,1.9-2.2c0.8-0.5,1.8-0.8,2.9-0.8s2,0.3,2.9,0.8
				c0.8,0.5,1.5,1.3,2,2.2c0.5,1,0.7,2.1,0.7,3.4v0.6C113.3,127.7,113.1,128.8,112.6,129.8z M109.8,122.8c-0.5-0.7-1.1-1-2-1
				c-0.9,0-1.5,0.3-2,1c-0.5,0.7-0.7,1.7-0.7,3v0.6c0,1.3,0.2,2.3,0.7,3c0.5,0.7,1.1,1.1,2,1.1c0.9,0,1.5-0.4,2-1.1
				c0.5-0.7,0.7-1.7,0.7-3v-0.6C110.5,124.5,110.3,123.5,109.8,122.8z"/>
			<path class="st0" d="M127.8,121.9h-3.9v10.6h-2.8v-10.6h-3.9v-2.2h10.6V121.9z"/>
			<path class="st0" d="M141.2,130.3v2.2h-8.7v-12.9h8.7v2.2h-5.9v2.9h5v2.2h-5v3.3L141.2,130.3L141.2,130.3z"/>
			<path class="st0" d="M155.4,130.6c-0.4,0.7-1,1.2-1.8,1.6c-0.8,0.4-1.7,0.6-2.7,0.6c-1.1,0-2.1-0.3-2.9-0.8s-1.4-1.2-1.9-2.2
				c-0.4-0.9-0.6-2-0.6-3.3v-0.8c0-1.3,0.2-2.4,0.7-3.3c0.4-0.9,1.1-1.7,1.9-2.2c0.8-0.5,1.8-0.8,2.8-0.8c1.1,0,2,0.2,2.7,0.6
				c0.8,0.4,1.3,0.9,1.8,1.6c0.4,0.7,0.7,1.5,0.7,2.4h-2.8c-0.1-0.8-0.3-1.4-0.6-1.7c-0.4-0.4-1-0.6-1.8-0.6c-0.9,0-1.5,0.3-1.9,1
				c-0.4,0.6-0.6,1.6-0.6,3v0.8c0,0.9,0.1,1.7,0.3,2.2c0.2,0.6,0.4,1,0.8,1.3c0.4,0.3,0.9,0.4,1.5,0.4c0.8,0,1.4-0.2,1.8-0.5
				c0.4-0.4,0.6-0.9,0.7-1.7h2.8C156.1,129.1,155.9,129.9,155.4,130.6z"/>
			<path class="st0" d="M170.6,121.9h-3.9v10.6h-2.8v-10.6H160v-2.2h10.6V121.9z"/>
			<path class="st0" d="M175.5,132.6v-12.9h2.8v12.9H175.5z"/>
			<path class="st0" d="M191.7,132.6l-5-8.3v8.3h-2.8v-12.9h2.8l5,8.3v-8.3h2.8v12.9H191.7z"/>
			<path class="st0" d="M209.3,131.8c-0.4,0.3-1,0.5-1.7,0.7c-0.7,0.2-1.4,0.3-2.3,0.3c-1.1,0-2.1-0.2-2.9-0.7
				c-0.8-0.5-1.5-1.2-2-2.1c-0.5-0.9-0.7-2.1-0.7-3.4v-0.8c0-1.3,0.2-2.4,0.7-3.4c0.5-0.9,1.1-1.7,1.9-2.1c0.8-0.5,1.8-0.7,2.9-0.7
				c1.6,0,2.9,0.4,3.7,1.2c0.8,0.8,1.3,1.8,1.5,3.2h-2.7c-0.1-0.7-0.3-1.2-0.7-1.5c-0.4-0.4-0.9-0.5-1.7-0.5c-0.9,0-1.5,0.3-2,1
				s-0.7,1.7-0.7,3v0.8c0,1.3,0.2,2.3,0.7,3c0.5,0.7,1.2,1,2.2,1c0.9,0,1.6-0.2,2-0.6v-2.1h-2.3v-2h5.1v5.2
				C210,131.2,209.7,131.5,209.3,131.8z"/>
			<path class="st0" d="M231,120.2c0.7,0.4,1.3,0.9,1.7,1.5c0.4,0.7,0.6,1.4,0.6,2.2c0,0.8-0.2,1.5-0.6,2.2c-0.4,0.6-1,1.1-1.7,1.4
				c-0.7,0.3-1.6,0.5-2.6,0.5h-2.3v4.5h-2.8v-12.9h5.1C229.4,119.7,230.3,119.9,231,120.2z M230,125.3c0.3-0.3,0.5-0.8,0.5-1.3
				c0-0.4-0.1-0.7-0.2-1c-0.1-0.3-0.4-0.6-0.7-0.8c-0.3-0.2-0.7-0.3-1.2-0.3h-2.3v3.9h2.3C229.1,125.8,229.7,125.7,230,125.3z"/>
			<path class="st0" d="M247.1,130.3v2.2h-8.7v-12.9h8.7v2.2h-5.9v2.9h5v2.2h-5v3.3L247.1,130.3L247.1,130.3z"/>
			<path class="st0" d="M261.8,129.8c-0.5,1-1.1,1.7-1.9,2.2c-0.8,0.5-1.8,0.8-2.9,0.8c-1.1,0-2-0.3-2.9-0.8c-0.8-0.5-1.5-1.2-2-2.2
				c-0.5-1-0.7-2.1-0.7-3.4v-0.6c0-1.3,0.2-2.4,0.7-3.4s1.1-1.7,1.9-2.2c0.8-0.5,1.8-0.8,2.9-0.8s2,0.3,2.9,0.8
				c0.8,0.5,1.5,1.3,2,2.2c0.5,1,0.7,2.1,0.7,3.4v0.6C262.5,127.7,262.3,128.8,261.8,129.8z M259,122.8c-0.5-0.7-1.1-1-2-1
				c-0.9,0-1.5,0.3-2,1c-0.5,0.7-0.7,1.7-0.7,3v0.6c0,1.3,0.2,2.3,0.7,3c0.5,0.7,1.1,1.1,2,1.1c0.9,0,1.5-0.4,2-1.1
				c0.5-0.7,0.7-1.7,0.7-3v-0.6C259.7,124.5,259.5,123.5,259,122.8z"/>
			<path class="st0" d="M275.3,120.2c0.7,0.4,1.3,0.9,1.7,1.5c0.4,0.7,0.6,1.4,0.6,2.2c0,0.8-0.2,1.5-0.6,2.2
				c-0.4,0.6-1,1.1-1.7,1.4s-1.6,0.5-2.6,0.5h-2.3v4.5h-2.8v-12.9h5.1C273.7,119.7,274.5,119.9,275.3,120.2z M274.2,125.3
				c0.3-0.3,0.5-0.8,0.5-1.3c0-0.4-0.1-0.7-0.2-1s-0.4-0.6-0.7-0.8c-0.3-0.2-0.7-0.3-1.2-0.3h-2.3v3.9h2.3
				C273.4,125.8,273.9,125.7,274.2,125.3z"/>
			<path class="st0" d="M291,130.3v2.2h-8.4v-12.9h2.8v10.6H291z"/>
			<path class="st0" d="M304.4,130.3v2.2h-8.7v-12.9h8.7v2.2h-5.9v2.9h5v2.2h-5v3.3L304.4,130.3L304.4,130.3z"/>
		</g>
	</g>
</g>
<g>
	<path class="st0" d="M338.6,32c-2.5,0-4.6-2.1-4.6-4.6s2.1-4.6,4.6-4.6s4.6,2.1,4.6,4.6S341.2,32,338.6,32z M338.6,23.6
		c-2.1,0-3.7,1.7-3.7,3.8s1.6,3.8,3.7,3.8c2.1,0,3.7-1.7,3.7-3.8S340.7,23.6,338.6,23.6z M339.6,29.8l-1-2h-0.6v2H337v-5h1.9
		c0.9,0,1.6,0.7,1.6,1.5c0,0.7-0.4,1.2-1,1.4l1.1,2.1H339.6z M338.8,25.6h-0.8v1.5h0.8c0.5,0,0.8-0.3,0.8-0.8S339.2,25.6,338.8,25.6
		z"/>
</g>
</svg>
